<svg width="14" height="14" viewBox="0 0 14 14" fill="none" xmlns="http://www.w3.org/2000/svg">
<path d="M5.5431 2.48338C5.36593 2.04044 4.93694 1.75 4.45988 1.75H2.85526C2.24484 1.75 1.75 2.24472 1.75 2.85514C1.75 8.04371 5.95629 12.25 11.1449 12.25C11.7553 12.25 12.25 11.7551 12.25 11.1447L12.2503 9.53981C12.2503 9.06275 11.9599 8.63383 11.517 8.45666L9.97904 7.84171C9.58117 7.68256 9.12817 7.75419 8.79897 8.02852L8.40205 8.35956C7.9385 8.74585 7.25645 8.71513 6.82978 8.28846L5.71213 7.16978C5.28546 6.74311 5.25393 6.06161 5.64022 5.59807L5.97119 5.20117C6.24552 4.87197 6.31779 4.41884 6.15864 4.02097L5.5431 2.48338Z" stroke="#1E5BB2" stroke-linecap="round" stroke-linejoin="round"/>
</svg>
