<svg width="16" height="16" viewBox="0 0 16 16" fill="none" xmlns="http://www.w3.org/2000/svg">
<path fill-rule="evenodd" clip-rule="evenodd" d="M7.73717 1.38645C7.82017 1.35087 7.90953 1.33252 7.99984 1.33252C8.09014 1.33252 8.1795 1.35087 8.2625 1.38645L12.5252 3.21378C12.7651 3.31662 12.9695 3.4876 13.1131 3.70554C13.2568 3.92347 13.3333 4.17877 13.3332 4.43978V9.01311C13.3331 9.83573 13.1156 10.6437 12.7026 11.3552C12.2897 12.0666 11.6961 12.6563 10.9818 13.0644L8.3305 14.5791C8.22979 14.6366 8.11582 14.6669 7.99984 14.6669C7.88386 14.6669 7.76988 14.6366 7.66917 14.5791L5.01784 13.0644C4.30341 12.6562 3.70964 12.0663 3.2967 11.3546C2.88376 10.6429 2.66635 9.83462 2.6665 9.01178V4.43978C2.66653 4.17888 2.7431 3.92373 2.88672 3.70593C3.03035 3.48812 3.23471 3.31724 3.4745 3.21445L7.73717 1.38645ZM10.4712 7.13778C10.5926 7.01204 10.6598 6.84364 10.6583 6.66885C10.6568 6.49405 10.5867 6.32684 10.463 6.20323C10.3394 6.07963 10.1722 6.00952 9.99744 6.008C9.82264 6.00648 9.65424 6.07367 9.5285 6.19511L7.33317 8.39045L6.47117 7.52845C6.34544 7.40701 6.17703 7.33981 6.00224 7.34133C5.82744 7.34285 5.66023 7.41296 5.53662 7.53657C5.41302 7.66017 5.34291 7.82738 5.34139 8.00218C5.33987 8.17698 5.40707 8.34538 5.5285 8.47111L6.86184 9.80445C6.98686 9.92943 7.15639 9.99964 7.33317 9.99964C7.50995 9.99964 7.67949 9.92943 7.8045 9.80445L10.4712 7.13778Z" fill="#008000"/>
</svg>
