<svg width="25" height="24" viewBox="0 0 25 24" fill="none" xmlns="http://www.w3.org/2000/svg">
<path d="M15 4H10L7.5 7H4.5C3.96957 7 3.46086 7.21071 3.08579 7.58579C2.71071 7.96086 2.5 8.46957 2.5 9V18C2.5 18.5304 2.71071 19.0391 3.08579 19.4142C3.46086 19.7893 3.96957 20 4.5 20H20.5C21.0304 20 21.5391 19.7893 21.9142 19.4142C22.2893 19.0391 22.5 18.5304 22.5 18V9C22.5 8.46957 22.2893 7.96086 21.9142 7.58579C21.5391 7.21071 21.0304 7 20.5 7H17.5L15 4Z" stroke="#1E5BB2" stroke-width="2" stroke-linecap="round" stroke-linejoin="round"/>
<path d="M12.5 16C14.1569 16 15.5 14.6569 15.5 13C15.5 11.3431 14.1569 10 12.5 10C10.8431 10 9.5 11.3431 9.5 13C9.5 14.6569 10.8431 16 12.5 16Z" stroke="#1E5BB2" stroke-width="2" stroke-linecap="round" stroke-linejoin="round"/>
</svg>
