<svg width="25" height="24" viewBox="0 0 25 24" fill="none" xmlns="http://www.w3.org/2000/svg">
<path d="M8.18466 14.5H16.8124C15.9436 15.9925 14.3437 17 12.5 17C10.6547 17 9.0481 15.9912 8.18466 14.5ZM9.70711 10.2071C9.51957 10.3946 9.26522 10.5 9 10.5C8.73478 10.5 8.48043 10.3946 8.29289 10.2071C8.10536 10.0196 8 9.76522 8 9.5C8 9.23478 8.10536 8.98043 8.29289 8.79289C8.48043 8.60536 8.73478 8.5 9 8.5C9.26522 8.5 9.51957 8.60536 9.70711 8.79289C9.89464 8.98043 10 9.23478 10 9.5C10 9.76522 9.89464 10.0196 9.70711 10.2071ZM16.7071 10.2071C16.5196 10.3946 16.2652 10.5 16 10.5C15.7348 10.5 15.4804 10.3946 15.2929 10.2071C15.1054 10.0196 15 9.76522 15 9.5C15 9.23478 15.1054 8.98043 15.2929 8.79289C15.4804 8.60536 15.7348 8.5 16 8.5C16.2652 8.5 16.5196 8.60536 16.7071 8.79289C16.8946 8.98043 17 9.23478 17 9.5C17 9.76522 16.8946 10.0196 16.7071 10.2071ZM6.48959 18.0104C8.08365 19.6045 10.2457 20.5 12.5 20.5C14.7543 20.5 16.9163 19.6045 18.5104 18.0104C20.1045 16.4163 21 14.2543 21 12C21 9.74566 20.1045 7.58365 18.5104 5.98959C16.9163 4.39553 14.7543 3.5 12.5 3.5C10.2457 3.5 8.08365 4.39553 6.48959 5.98959C4.89553 7.58365 4 9.74566 4 12C4 14.2543 4.89553 16.4163 6.48959 18.0104ZM3 12C3 6.77517 7.24712 2.5 12.5 2.5C13.7476 2.5 14.9829 2.74572 16.1355 3.22314C17.2881 3.70056 18.3354 4.40033 19.2175 5.28249C20.0997 6.16464 20.7994 7.21191 21.2769 8.36451C21.7543 9.5171 22 10.7524 22 12C22 14.5196 20.9991 16.9359 19.2175 18.7175C17.4359 20.4991 15.0196 21.5 12.5 21.5C11.2524 21.5 10.0171 21.2543 8.86451 20.7769C7.71191 20.2994 6.66464 19.5997 5.78249 18.7175C4.00089 16.9359 3 14.5196 3 12Z" fill="#1E5BB2" stroke="#1E5BB2"/>
</svg>
