<svg width="24" height="24" viewBox="0 0 24 24" fill="none" xmlns="http://www.w3.org/2000/svg">
<rect width="24" height="24" rx="12" fill="white"/>
<g clip-path="url(#clip0_1_34649)">
<path d="M17.1667 17.1667H16.6667H14.6816L14.638 17.1693C14.5997 17.1761 14.5648 17.1963 14.5396 17.2264C14.5123 17.2589 14.4985 17.3007 14.501 17.3431C14.5035 17.3855 14.5221 17.4254 14.553 17.4545C14.5839 17.4837 14.6247 17.5 14.6672 17.5H16.6583L16.7384 17.4973C16.9445 17.4795 17.1368 17.3856 17.2777 17.2337C17.4207 17.0796 17.5001 16.8771 17.5 16.6668V16.6667V14.6816L17.4974 14.6377C17.4909 14.6008 17.4721 14.5671 17.444 14.5421C17.4135 14.515 17.3741 14.5 17.3333 14.5L17.1667 17.1667ZM17.1667 17.1667V16.6667M17.1667 17.1667V16.6667M17.1667 16.6667V14.6667M17.1667 16.6667V14.6667M17.1667 14.6667C17.1667 14.6225 17.1842 14.5801 17.2155 14.5488M17.1667 14.6667L17.2155 14.5488M17.2155 14.5488C17.2467 14.5176 17.2891 14.5 17.3333 14.5L17.2155 14.5488ZM6.83333 16.6667V17.1667H7.33333H9.33333C9.37754 17.1667 9.41993 17.1842 9.45118 17.2155C9.48244 17.2467 9.5 17.2891 9.5 17.3333C9.5 17.3775 9.48244 17.4199 9.45118 17.4512C9.41993 17.4824 9.37754 17.5 9.33333 17.5H7.33333C7.11232 17.5 6.90036 17.4122 6.74408 17.2559C6.5878 17.0996 6.5 16.8877 6.5 16.6667V14.6667C6.5 14.6225 6.51756 14.5801 6.54881 14.5488C6.58007 14.5176 6.62247 14.5 6.66667 14.5C6.71087 14.5 6.75326 14.5176 6.78452 14.5488C6.81577 14.5801 6.83333 14.6225 6.83333 14.6667V16.6667ZM16.6667 6.5L16.6668 6.5C16.8771 6.49993 17.0796 6.57934 17.2337 6.72229C17.3856 6.86315 17.4795 7.05546 17.4973 7.26164L17.5 7.34166V9.33278C17.5 9.37526 17.4837 9.41612 17.4545 9.44701C17.4254 9.4779 17.3855 9.49648 17.3431 9.49897C17.3007 9.50146 17.2589 9.48767 17.2264 9.4604C17.1963 9.43524 17.1761 9.40035 17.1693 9.36195L17.1667 9.3184V7.33333V6.83333H16.6667H14.667C14.6246 6.83324 14.5838 6.81698 14.553 6.78786C14.5221 6.7587 14.5035 6.71884 14.501 6.67643C14.4985 6.63403 14.5123 6.59227 14.5396 6.5597C14.5648 6.52963 14.5997 6.50948 14.638 6.50261L14.6816 6.5L16.6667 6.5ZM6.83333 7.33333V9.33296C6.83324 9.37538 6.81698 9.41616 6.78786 9.44701C6.7587 9.4779 6.71884 9.49648 6.67643 9.49897L6.70574 9.99812L6.67643 9.49897C6.63403 9.50146 6.59227 9.48767 6.5597 9.4604C6.52963 9.43524 6.50948 9.40035 6.50261 9.36195L6.5 9.31839L6.5 7.33333L6.5 7.33318C6.49993 7.12293 6.57934 6.92044 6.72229 6.76628C6.86315 6.61438 7.05546 6.52047 7.26164 6.50267L7.34166 6.5H9.33296C9.37537 6.50009 9.41616 6.51635 9.44701 6.54547C9.4779 6.57464 9.49648 6.61449 9.49897 6.6569L9.99812 6.6276L9.49897 6.6569C9.50146 6.69931 9.48767 6.74106 9.4604 6.77364C9.43524 6.80371 9.40035 6.82386 9.36195 6.83073L9.31839 6.83333H7.33333H6.83333V7.33333Z" fill="#4A535F" stroke="#1E5BB2"/>
</g>
<defs>
<clipPath id="clip0_1_34649">
<rect width="16" height="16" fill="white" transform="translate(4 4)"/>
</clipPath>
</defs>
</svg>
