<svg width="32" height="32" viewBox="0 0 32 32" fill="none" xmlns="http://www.w3.org/2000/svg">
<rect width="32" height="32" rx="16" fill="white"/>
<g clip-path="url(#clip0_1169_3696)">
<path d="M18.8333 12.6667V13.1667H19.3333H21.3333C21.3775 13.1667 21.4199 13.1842 21.4512 13.2155C21.4824 13.2467 21.5 13.2891 21.5 13.3333C21.5 13.3775 21.4824 13.4199 21.4512 13.4512C21.4199 13.4824 21.3775 13.5 21.3333 13.5H19.3333C19.1123 13.5 18.9004 13.4122 18.7441 13.2559C18.5878 13.0996 18.5 12.8877 18.5 12.6667V10.6667C18.5 10.6225 18.5176 10.5801 18.5488 10.5488C18.5801 10.5176 18.6225 10.5 18.6667 10.5C18.7109 10.5 18.7533 10.5176 18.7845 10.5488C18.8158 10.5801 18.8333 10.6225 18.8333 10.6667V12.6667ZM12.6667 13.1667H13.1667V12.6667V10.6667C13.1667 10.6225 13.1842 10.5801 13.2155 10.5488C13.2467 10.5176 13.2891 10.5 13.3333 10.5C13.3775 10.5 13.4199 10.5176 13.4512 10.5488C13.4824 10.5801 13.5 10.6225 13.5 10.6667V12.6667C13.5 12.8877 13.4122 13.0996 13.2559 13.2559C13.0996 13.4122 12.8877 13.5 12.6667 13.5H10.6667C10.6225 13.5 10.5801 13.4824 10.5488 13.4512C10.5176 13.4199 10.5 13.3775 10.5 13.3333C10.5 13.2891 10.5176 13.2467 10.5488 13.2155C10.5801 13.1842 10.6225 13.1667 10.6667 13.1667H12.6667ZM13.1667 19.3333V18.8333H12.6667H10.6667C10.6225 18.8333 10.5801 18.8158 10.5488 18.7845C10.5176 18.7533 10.5 18.7109 10.5 18.6667C10.5 18.6225 10.5176 18.5801 10.5488 18.5488C10.5801 18.5176 10.6225 18.5 10.6667 18.5H12.6667C12.8877 18.5 13.0996 18.5878 13.2559 18.7441C13.4122 18.9004 13.5 19.1123 13.5 19.3333V21.3333C13.5 21.3775 13.4824 21.4199 13.4512 21.4512C13.4199 21.4824 13.3775 21.5 13.3333 21.5C13.2891 21.5 13.2467 21.4824 13.2155 21.4512C13.1842 21.4199 13.1667 21.3775 13.1667 21.3333V19.3333ZM19.3333 18.8333H18.8333V19.3333V21.3333C18.8333 21.3775 18.8158 21.4199 18.7845 21.4512C18.7533 21.4824 18.7109 21.5 18.6667 21.5C18.6225 21.5 18.5801 21.4824 18.5488 21.4512C18.5176 21.4199 18.5 21.3775 18.5 21.3333V19.3333C18.5 19.1123 18.5878 18.9004 18.7441 18.7441C18.9004 18.5878 19.1123 18.5 19.3333 18.5H21.3333C21.3775 18.5 21.4199 18.5176 21.4512 18.5488C21.4824 18.5801 21.5 18.6225 21.5 18.6667C21.5 18.7109 21.4824 18.7533 21.4512 18.7845C21.4199 18.8158 21.3775 18.8333 21.3333 18.8333H19.3333Z" fill="#4A535F" stroke="#1E5BB2"/>
</g>
<defs>
<clipPath id="clip0_1169_3696">
<rect width="16" height="16" fill="white" transform="translate(8 8)"/>
</clipPath>
</defs>
</svg>
